<?xml version="1.0" encoding="utf-8"?>
<!-- Generator: Adobe Illustrator 24.0.3, SVG Export Plug-In . SVG Version: 6.00 Build 0)  -->
<svg version="1.1" id="레이어_1" xmlns="http://www.w3.org/2000/svg" xmlns:xlink="http://www.w3.org/1999/xlink" x="0px"
	 y="0px" viewBox="0 0 24 24" style="enable-background:new 0 0 24 24;" xml:space="preserve">
<style type="text/css">
	.st0{fill:none;}
</style>
<path class="st0" d="M0,0h24v24H0V0z"/>
<g>
	<path d="M12,5.5c1.4,0,2.5,1.1,2.5,2.5s-1.1,2.5-2.5,2.5S9.5,9.4,9.5,8S10.6,5.5,12,5.5 M12,14.5c2.9,0,6.5,1.4,6.5,2.5v1.5h-13V17
		C5.5,15.9,9.1,14.5,12,14.5 M12,4C9.8,4,8,5.8,8,8s1.8,4,4,4s4-1.8,4-4S14.2,4,12,4L12,4z M12,13c-2.7,0-8,1.3-8,4v3h16v-3
		C20,14.3,14.7,13,12,13L12,13z"/>
</g>
</svg>
